<?xml version="1.0" encoding="UTF-8"?><svg width="42.0688mm" height="19.8438mm" viewBox="0 0 159 75" xmlns="http://www.w3.org/2000/svg" xmlns:xlink="http://www.w3.org/1999/xlink"><g fill="none" stroke="black" stroke-width="1" fill-rule="evenodd" stroke-linecap="square" stroke-linejoin="bevel"><g clip-path="none" fill="none" opacity="1" stroke="none" stroke-opacity="0" transform="matrix(1,0,0,1,0,0)"><path d="M0,0 L159,0 L159,75 L0,75 L0,0 z" fill-rule="evenodd" vector-effect="none"/></g><defs><clipPath id="clip3"><path d="M7,20 L-152,20 L-152,-55 L7,-55 L7,20 z"/></clipPath></defs><g clip-path="url(#clip3)" fill="none" opacity="1" stroke="#000000" stroke-linecap="round" stroke-linejoin="miter" stroke-miterlimit="2" stroke-opacity="1" stroke-width="2" transform="matrix(-1,0,0,-1,7,20)"><path d="M4.5,-5.5 L-0.5,-0.5 L4.5,4.5" fill-rule="evenodd" vector-effect="none"/></g><defs><clipPath id="clip6"><path d="M7,55 L-152,55 L-152,-20 L7,-20 L7,55 z"/></clipPath></defs><g clip-path="url(#clip6)" fill="none" opacity="1" stroke="#000000" stroke-linecap="round" stroke-linejoin="miter" stroke-miterlimit="2" stroke-opacity="1" stroke-width="2" transform="matrix(-1,0,0,-1,7,55)"><path d="M4.5,-5.5 L-0.5,-0.5 L4.5,4.5" fill-rule="evenodd" vector-effect="none"/></g><defs><clipPath id="clip9"><path d="M-152,-40 L7,-40 L7,35 L-152,35 L-152,-40 z"/></clipPath></defs><g clip-path="url(#clip9)" fill="none" opacity="1" stroke="#000000" stroke-linecap="round" stroke-linejoin="miter" stroke-miterlimit="2" stroke-opacity="1" stroke-width="2" transform="matrix(1,0,0,1,152,40)"><path d="M0.5,-4.5 L5.5,0.5 L0.5,5.5" fill-rule="evenodd" vector-effect="none"/></g><defs><clipPath id="clip12"><path d="M-7,-2 L152,-2 L152,73 L-7,73 L-7,-2 z"/></clipPath></defs><g clip-path="url(#clip12)" fill="#ffffff" fill-opacity="1" opacity="1" stroke="none" stroke-opacity="0" transform="matrix(1,0,0,1,7,2)"><path d="M0,0 L145,0 L145,71 L0,71 L0,0 z" fill-rule="evenodd" vector-effect="none"/></g><defs><clipPath id="clip16"><path d="M-72,-30 L73,-30 L73,41 L-72,41 L-72,-30 z"/></clipPath></defs><g clip-path="url(#clip16)" fill="none" opacity="1" stroke="#000000" stroke-linecap="butt" stroke-linejoin="miter" stroke-miterlimit="2" stroke-opacity="1" stroke-width="1" transform="matrix(1,0,0,1,79,32)"><text fill="#000000" fill-opacity="1" font-family="Arial" font-size="10" font-style="normal" font-weight="400" stroke="none" textLength="28.8438" x="-14.4219" xml:space="preserve" y="3.5">Object</text></g><defs><clipPath id="clip17"><path d="M-72,-40 L73,-40 L73,31 L-72,31 L-72,-40 z"/></clipPath></defs><g clip-path="url(#clip17)" fill="none" opacity="1" stroke="#000000" stroke-linecap="butt" stroke-linejoin="miter" stroke-miterlimit="2" stroke-opacity="1" stroke-width="1" transform="matrix(1,0,0,1,79,42)"><text fill="#000000" fill-opacity="1" font-family="Arial" font-size="10" font-style="normal" font-weight="400" stroke="none" textLength="37.7188" x="-18.8594" xml:space="preserve" y="3.5">Detector</text></g><defs><clipPath id="clip18"><path d="M-3,-18 L142,-18 L142,53 L-3,53 L-3,-18 z"/></clipPath></defs><g clip-path="url(#clip18)" fill="none" opacity="1" stroke="#000000" stroke-linecap="butt" stroke-linejoin="miter" stroke-miterlimit="2" stroke-opacity="1" stroke-width="1" transform="matrix(1,0,0,1,10,20)"><text fill="#000000" fill-opacity="1" font-family="Arial" font-size="10" font-style="normal" font-weight="400" stroke="none" textLength="21.6406" x="0" xml:space="preserve" y="3.5">pose</text></g><defs><clipPath id="clip19"><path d="M-3,-53 L142,-53 L142,18 L-3,18 L-3,-53 z"/></clipPath></defs><g clip-path="url(#clip19)" fill="none" opacity="1" stroke="#000000" stroke-linecap="butt" stroke-linejoin="miter" stroke-miterlimit="2" stroke-opacity="1" stroke-width="1" transform="matrix(1,0,0,1,10,55)"><text fill="#000000" fill-opacity="1" font-family="Arial" font-size="10" font-style="normal" font-weight="400" stroke="none" textLength="31.625" x="0" xml:space="preserve" y="3.5">objects</text></g><defs><clipPath id="clip20"><path d="M-142,-38 L3,-38 L3,33 L-142,33 L-142,-38 z"/></clipPath></defs><g clip-path="url(#clip20)" fill="none" opacity="1" stroke="#000000" stroke-linecap="butt" stroke-linejoin="miter" stroke-miterlimit="2" stroke-opacity="1" stroke-width="1" transform="matrix(1,0,0,1,149,40)"><text fill="#000000" fill-opacity="1" font-family="Arial" font-size="10" font-style="normal" font-weight="400" stroke="none" textLength="45.4844" x="-45.4844" xml:space="preserve" y="3.5">detections</text></g><defs><clipPath id="clip25"><path d="M-7.5,-2.5 L151.5,-2.5 L151.5,72.5 L-7.5,72.5 L-7.5,-2.5 z"/></clipPath></defs><g clip-path="url(#clip25)" fill="none" opacity="1" stroke="#000000" stroke-linecap="butt" stroke-linejoin="miter" stroke-miterlimit="2" stroke-opacity="1" stroke-width="1" transform="matrix(1,0,0,1,7.5,2.5)"><path d="M0,0 L145,0 L145,71 L0,71 L0,0 z" fill-rule="evenodd" vector-effect="none"/></g></g><!--generated on windows @ 2019-05-30 11:02:58 Central Daylight Time--></svg>
