<?xml version="1.0" encoding="UTF-8"?><svg width="29.6333mm" height="20.1083mm" viewBox="0 0 112 76" xmlns="http://www.w3.org/2000/svg" xmlns:xlink="http://www.w3.org/1999/xlink"><g fill="none" stroke="black" stroke-width="1" fill-rule="evenodd" stroke-linecap="square" stroke-linejoin="bevel"><g clip-path="none" fill="none" opacity="1" stroke="none" stroke-opacity="0" transform="matrix(1,0,0,1,0,0)"><path d="M0,0 L112,0 L112,76 L0,76 L0,0 z" fill-rule="evenodd" vector-effect="none"/></g><defs><clipPath id="clip3"><path d="M7,13 L-105,13 L-105,-63 L7,-63 L7,13 z"/></clipPath></defs><g clip-path="url(#clip3)" fill="none" opacity="1" stroke="#000000" stroke-linecap="round" stroke-linejoin="miter" stroke-miterlimit="2" stroke-opacity="1" stroke-width="2" transform="matrix(-1,0,0,-1,7,13)"><path d="M4.5,-5.5 L-0.5,-0.5 L4.5,4.5" fill-rule="evenodd" vector-effect="none"/></g><defs><clipPath id="clip6"><path d="M7,38 L-105,38 L-105,-38 L7,-38 L7,38 z"/></clipPath></defs><g clip-path="url(#clip6)" fill="none" opacity="1" stroke="#000000" stroke-linecap="round" stroke-linejoin="miter" stroke-miterlimit="2" stroke-opacity="1" stroke-width="2" transform="matrix(-1,0,0,-1,7,38)"><path d="M4.5,-5.5 L-0.5,-0.5 L4.5,4.5" fill-rule="evenodd" vector-effect="none"/></g><defs><clipPath id="clip9"><path d="M7,63 L-105,63 L-105,-13 L7,-13 L7,63 z"/></clipPath></defs><g clip-path="url(#clip9)" fill="none" opacity="1" stroke="#000000" stroke-linecap="round" stroke-linejoin="miter" stroke-miterlimit="2" stroke-opacity="1" stroke-width="2" transform="matrix(-1,0,0,-1,7,63)"><path d="M4.5,-5.5 L-0.5,-0.5 L4.5,4.5" fill-rule="evenodd" vector-effect="none"/></g><defs><linearGradient gradientUnits="userSpaceOnUse" id="grad1" x1="290.139" x2="293.81" y1="-370.5" y2="-370.5"><stop offset="1e-07" stop-color="#4d5d6c" stop-opacity="1"/><stop offset="1" stop-color="#4e7594" stop-opacity="1"/></linearGradient><clipPath id="clip16"><path d="M0,0 L10,0 L10,10 L0,10 L0,0 z"/></clipPath></defs><g clip-path="url(#clip16)" fill="url(#grad1)" opacity="1" stroke="none" stroke-opacity="0" transform="matrix(0.8,0,0,0.8,102,19)"><path d="M4.139,5 L7.81,5 L7.81,6 L4.139,6 L4.139,5 z" fill-rule="evenodd" vector-effect="none"/></g><defs><linearGradient gradientUnits="userSpaceOnUse" id="grad2" x1="288.827" x2="290.338" y1="-372.169" y2="-370.666"><stop offset="1e-07" stop-color="#dfecff" stop-opacity="1"/><stop offset="1" stop-color="#4d5d6c" stop-opacity="1"/></linearGradient><clipPath id="clip19"><path d="M0,0 L10,0 L10,10 L0,10 L0,0 z"/></clipPath></defs><g clip-path="url(#clip19)" fill="url(#grad2)" opacity="1" stroke="none" stroke-opacity="0" transform="matrix(0.8,0,0,0.8,102,19)"><path d="M2.854,7.854 L2.146,7.146 L4.146,5.146 L4.854,5.854 L2.854,7.854 z" fill-rule="nonzero" vector-effect="none"/></g><defs><linearGradient gradientUnits="userSpaceOnUse" id="grad3" x1="-400.719" x2="-397.408" y1="-278.016" y2="-278.016"><stop offset="1e-07" stop-color="#4d5d6c" stop-opacity="1"/><stop offset="1" stop-color="#4e7594" stop-opacity="1"/></linearGradient><clipPath id="clip22"><path d="M0,0 L10,0 L10,10 L0,10 L0,0 z"/></clipPath></defs><g clip-path="url(#clip22)" fill="url(#grad3)" opacity="1" stroke="none" stroke-opacity="0" transform="matrix(0.8,0,0,0.8,102,19)"><path d="M4.139,2.063 L5.139,2.063 L5.139,5.374 L4.139,5.374 L4.139,2.063 z" fill-rule="evenodd" vector-effect="none"/></g><defs><clipPath id="clip25"><path d="M0,0 L10,0 L10,10 L0,10 L0,0 z"/></clipPath></defs><g clip-path="url(#clip25)" fill="#000000" fill-opacity="1" opacity="1" stroke="none" stroke-opacity="0" transform="matrix(0.8,0,0,0.8,102,19)"><path d="M9,1 L9,9 L1,9 L1,1 L9,1 M10,0 L0,0 L0,10 L10,10 L10,0" fill-rule="nonzero" vector-effect="none"/></g><defs><linearGradient gradientUnits="userSpaceOnUse" id="grad4" x1="290.139" x2="293.81" y1="-370.5" y2="-370.5"><stop offset="1e-07" stop-color="#4d5d6c" stop-opacity="1"/><stop offset="1" stop-color="#4e7594" stop-opacity="1"/></linearGradient><clipPath id="clip48"><path d="M0,0 L10,0 L10,10 L0,10 L0,0 z"/></clipPath></defs><g clip-path="url(#clip48)" fill="url(#grad4)" opacity="1" stroke="none" stroke-opacity="0" transform="matrix(0.8,0,0,0.8,102,54)"><path d="M4.139,5 L7.81,5 L7.81,6 L4.139,6 L4.139,5 z" fill-rule="evenodd" vector-effect="none"/></g><defs><linearGradient gradientUnits="userSpaceOnUse" id="grad5" x1="288.827" x2="290.338" y1="-372.169" y2="-370.666"><stop offset="1e-07" stop-color="#dfecff" stop-opacity="1"/><stop offset="1" stop-color="#4d5d6c" stop-opacity="1"/></linearGradient><clipPath id="clip51"><path d="M0,0 L10,0 L10,10 L0,10 L0,0 z"/></clipPath></defs><g clip-path="url(#clip51)" fill="url(#grad5)" opacity="1" stroke="none" stroke-opacity="0" transform="matrix(0.8,0,0,0.8,102,54)"><path d="M2.854,7.854 L2.146,7.146 L4.146,5.146 L4.854,5.854 L2.854,7.854 z" fill-rule="nonzero" vector-effect="none"/></g><defs><linearGradient gradientUnits="userSpaceOnUse" id="grad6" x1="-400.719" x2="-397.408" y1="-278.016" y2="-278.016"><stop offset="1e-07" stop-color="#4d5d6c" stop-opacity="1"/><stop offset="1" stop-color="#4e7594" stop-opacity="1"/></linearGradient><clipPath id="clip54"><path d="M0,0 L10,0 L10,10 L0,10 L0,0 z"/></clipPath></defs><g clip-path="url(#clip54)" fill="url(#grad6)" opacity="1" stroke="none" stroke-opacity="0" transform="matrix(0.8,0,0,0.8,102,54)"><path d="M4.139,2.063 L5.139,2.063 L5.139,5.374 L4.139,5.374 L4.139,2.063 z" fill-rule="evenodd" vector-effect="none"/></g><defs><clipPath id="clip57"><path d="M0,0 L10,0 L10,10 L0,10 L0,0 z"/></clipPath></defs><g clip-path="url(#clip57)" fill="#000000" fill-opacity="1" opacity="1" stroke="none" stroke-opacity="0" transform="matrix(0.8,0,0,0.8,102,54)"><path d="M9,1 L9,9 L1,9 L1,1 L9,1 M10,0 L0,0 L0,10 L10,10 L10,0" fill-rule="nonzero" vector-effect="none"/></g><defs><clipPath id="clip76"><path d="M-7,-2 L105,-2 L105,74 L-7,74 L-7,-2 z"/></clipPath></defs><g clip-path="url(#clip76)" fill="#ffffff" fill-opacity="1" opacity="1" stroke="none" stroke-opacity="0" transform="matrix(1,0,0,1,7,2)"><path d="M0,0 L95,0 L95,72 L0,72 L0,0 z" fill-rule="evenodd" vector-effect="none"/></g><defs><clipPath id="clip80"><path d="M-3,-11 L92,-11 L92,61 L-3,61 L-3,-11 z"/></clipPath></defs><g clip-path="url(#clip80)" fill="none" opacity="1" stroke="#000000" stroke-linecap="butt" stroke-linejoin="miter" stroke-miterlimit="2" stroke-opacity="1" stroke-width="1" transform="matrix(1,0,0,1,10,13)"><text fill="#000000" fill-opacity="1" font-family="Arial" font-size="9" font-style="normal" font-weight="400" stroke="none" textLength="39.4688" x="0" xml:space="preserve" y="3">wheelSpd</text></g><defs><clipPath id="clip81"><path d="M-3,-36 L92,-36 L92,36 L-3,36 L-3,-36 z"/></clipPath></defs><g clip-path="url(#clip81)" fill="none" opacity="1" stroke="#000000" stroke-linecap="butt" stroke-linejoin="miter" stroke-miterlimit="2" stroke-opacity="1" stroke-width="1" transform="matrix(1,0,0,1,10,38)"><text fill="#000000" fill-opacity="1" font-family="Arial" font-size="9" font-style="normal" font-weight="400" stroke="none" textLength="35.9844" x="0" xml:space="preserve" y="3">steerAng</text></g><defs><clipPath id="clip82"><path d="M-3,-61 L92,-61 L92,11 L-3,11 L-3,-61 z"/></clipPath></defs><g clip-path="url(#clip82)" fill="none" opacity="1" stroke="#000000" stroke-linecap="butt" stroke-linejoin="miter" stroke-miterlimit="2" stroke-opacity="1" stroke-width="1" transform="matrix(1,0,0,1,10,63)"><text fill="#000000" fill-opacity="1" font-family="Arial" font-size="9" font-style="normal" font-weight="400" stroke="none" textLength="19.5" x="0" xml:space="preserve" y="3">pose</text></g><defs><clipPath id="clip83"><path d="M-92,-21 L3,-21 L3,51 L-92,51 L-92,-21 z"/></clipPath></defs><g clip-path="url(#clip83)" fill="none" opacity="1" stroke="#000000" stroke-linecap="butt" stroke-linejoin="miter" stroke-miterlimit="2" stroke-opacity="1" stroke-width="1" transform="matrix(1,0,0,1,99,23)"><text fill="#000000" fill-opacity="1" font-family="Arial" font-size="9" font-style="normal" font-weight="400" stroke="none" textLength="6.48438" x="-6.48438" xml:space="preserve" y="3">R</text></g><defs><clipPath id="clip84"><path d="M-92,-56 L3,-56 L3,16 L-92,16 L-92,-56 z"/></clipPath></defs><g clip-path="url(#clip84)" fill="none" opacity="1" stroke="#000000" stroke-linecap="butt" stroke-linejoin="miter" stroke-miterlimit="2" stroke-opacity="1" stroke-width="1" transform="matrix(1,0,0,1,99,58)"><text fill="#000000" fill-opacity="1" font-family="Arial" font-size="9" font-style="normal" font-weight="400" stroke="none" textLength="7" x="-7" xml:space="preserve" y="3">G</text></g><defs><clipPath id="clip89"><path d="M-7.5,-2.5 L104.5,-2.5 L104.5,73.5 L-7.5,73.5 L-7.5,-2.5 z"/></clipPath></defs><g clip-path="url(#clip89)" fill="none" opacity="1" stroke="#000000" stroke-linecap="butt" stroke-linejoin="miter" stroke-miterlimit="2" stroke-opacity="1" stroke-width="1" transform="matrix(1,0,0,1,7.5,2.5)"><path d="M0,0 L95,0 L95,72 L0,72 L0,0 z" fill-rule="evenodd" vector-effect="none"/></g></g><!--generated on windows @ 2019-05-30 11:02:58 Central Daylight Time--></svg>
