<?xml version="1.0" encoding="UTF-8"?><svg width="29.6333mm" height="19.8438mm" viewBox="0 0 112 75" xmlns="http://www.w3.org/2000/svg" xmlns:xlink="http://www.w3.org/1999/xlink"><g fill="none" stroke="black" stroke-width="1" fill-rule="evenodd" stroke-linecap="square" stroke-linejoin="bevel"><g clip-path="none" fill="none" opacity="1" stroke="none" stroke-opacity="0" transform="matrix(1,0,0,1,0,0)"><path d="M0,0 L112,0 L112,75 L0,75 L0,0 z" fill-rule="evenodd" vector-effect="none"/></g><defs><clipPath id="clip3"><path d="M7,20 L-105,20 L-105,-55 L7,-55 L7,20 z"/></clipPath></defs><g clip-path="url(#clip3)" fill="none" opacity="1" stroke="#000000" stroke-linecap="round" stroke-linejoin="miter" stroke-miterlimit="2" stroke-opacity="1" stroke-width="2" transform="matrix(-1,0,0,-1,7,20)"><path d="M4.5,-5.5 L-0.5,-0.5 L4.5,4.5" fill-rule="evenodd" vector-effect="none"/></g><defs><clipPath id="clip6"><path d="M7,55 L-105,55 L-105,-20 L7,-20 L7,55 z"/></clipPath></defs><g clip-path="url(#clip6)" fill="none" opacity="1" stroke="#000000" stroke-linecap="round" stroke-linejoin="miter" stroke-miterlimit="2" stroke-opacity="1" stroke-width="2" transform="matrix(-1,0,0,-1,7,55)"><path d="M4.5,-5.5 L-0.5,-0.5 L4.5,4.5" fill-rule="evenodd" vector-effect="none"/></g><defs><linearGradient gradientUnits="userSpaceOnUse" id="grad1" x1="290.139" x2="293.81" y1="-370.5" y2="-370.5"><stop offset="1e-07" stop-color="#4d5d6c" stop-opacity="1"/><stop offset="1" stop-color="#4e7594" stop-opacity="1"/></linearGradient><clipPath id="clip13"><path d="M0,0 L10,0 L10,10 L0,10 L0,0 z"/></clipPath></defs><g clip-path="url(#clip13)" fill="url(#grad1)" opacity="1" stroke="none" stroke-opacity="0" transform="matrix(0.8,0,0,0.8,102,51)"><path d="M4.139,5 L7.81,5 L7.81,6 L4.139,6 L4.139,5 z" fill-rule="evenodd" vector-effect="none"/></g><defs><linearGradient gradientUnits="userSpaceOnUse" id="grad2" x1="288.827" x2="290.338" y1="-372.169" y2="-370.666"><stop offset="1e-07" stop-color="#dfecff" stop-opacity="1"/><stop offset="1" stop-color="#4d5d6c" stop-opacity="1"/></linearGradient><clipPath id="clip16"><path d="M0,0 L10,0 L10,10 L0,10 L0,0 z"/></clipPath></defs><g clip-path="url(#clip16)" fill="url(#grad2)" opacity="1" stroke="none" stroke-opacity="0" transform="matrix(0.8,0,0,0.8,102,51)"><path d="M2.854,7.854 L2.146,7.146 L4.146,5.146 L4.854,5.854 L2.854,7.854 z" fill-rule="nonzero" vector-effect="none"/></g><defs><linearGradient gradientUnits="userSpaceOnUse" id="grad3" x1="-400.719" x2="-397.408" y1="-278.016" y2="-278.016"><stop offset="1e-07" stop-color="#4d5d6c" stop-opacity="1"/><stop offset="1" stop-color="#4e7594" stop-opacity="1"/></linearGradient><clipPath id="clip19"><path d="M0,0 L10,0 L10,10 L0,10 L0,0 z"/></clipPath></defs><g clip-path="url(#clip19)" fill="url(#grad3)" opacity="1" stroke="none" stroke-opacity="0" transform="matrix(0.8,0,0,0.8,102,51)"><path d="M4.139,2.063 L5.139,2.063 L5.139,5.374 L4.139,5.374 L4.139,2.063 z" fill-rule="evenodd" vector-effect="none"/></g><defs><clipPath id="clip22"><path d="M0,0 L10,0 L10,10 L0,10 L0,0 z"/></clipPath></defs><g clip-path="url(#clip22)" fill="#000000" fill-opacity="1" opacity="1" stroke="none" stroke-opacity="0" transform="matrix(0.8,0,0,0.8,102,51)"><path d="M9,1 L9,9 L1,9 L1,1 L9,1 M10,0 L0,0 L0,10 L10,10 L10,0" fill-rule="nonzero" vector-effect="none"/></g><defs><linearGradient gradientUnits="userSpaceOnUse" id="grad4" x1="290.139" x2="293.81" y1="-370.5" y2="-370.5"><stop offset="1e-07" stop-color="#4d5d6c" stop-opacity="1"/><stop offset="1" stop-color="#4e7594" stop-opacity="1"/></linearGradient><clipPath id="clip45"><path d="M0,0 L10,0 L10,10 L0,10 L0,0 z"/></clipPath></defs><g clip-path="url(#clip45)" fill="url(#grad4)" opacity="1" stroke="none" stroke-opacity="0" transform="matrix(0.8,0,0,0.8,102,16)"><path d="M4.139,5 L7.81,5 L7.81,6 L4.139,6 L4.139,5 z" fill-rule="evenodd" vector-effect="none"/></g><defs><linearGradient gradientUnits="userSpaceOnUse" id="grad5" x1="288.827" x2="290.338" y1="-372.169" y2="-370.666"><stop offset="1e-07" stop-color="#dfecff" stop-opacity="1"/><stop offset="1" stop-color="#4d5d6c" stop-opacity="1"/></linearGradient><clipPath id="clip48"><path d="M0,0 L10,0 L10,10 L0,10 L0,0 z"/></clipPath></defs><g clip-path="url(#clip48)" fill="url(#grad5)" opacity="1" stroke="none" stroke-opacity="0" transform="matrix(0.8,0,0,0.8,102,16)"><path d="M2.854,7.854 L2.146,7.146 L4.146,5.146 L4.854,5.854 L2.854,7.854 z" fill-rule="nonzero" vector-effect="none"/></g><defs><linearGradient gradientUnits="userSpaceOnUse" id="grad6" x1="-400.719" x2="-397.408" y1="-278.016" y2="-278.016"><stop offset="1e-07" stop-color="#4d5d6c" stop-opacity="1"/><stop offset="1" stop-color="#4e7594" stop-opacity="1"/></linearGradient><clipPath id="clip51"><path d="M0,0 L10,0 L10,10 L0,10 L0,0 z"/></clipPath></defs><g clip-path="url(#clip51)" fill="url(#grad6)" opacity="1" stroke="none" stroke-opacity="0" transform="matrix(0.8,0,0,0.8,102,16)"><path d="M4.139,2.063 L5.139,2.063 L5.139,5.374 L4.139,5.374 L4.139,2.063 z" fill-rule="evenodd" vector-effect="none"/></g><defs><clipPath id="clip54"><path d="M0,0 L10,0 L10,10 L0,10 L0,0 z"/></clipPath></defs><g clip-path="url(#clip54)" fill="#000000" fill-opacity="1" opacity="1" stroke="none" stroke-opacity="0" transform="matrix(0.8,0,0,0.8,102,16)"><path d="M9,1 L9,9 L1,9 L1,1 L9,1 M10,0 L0,0 L0,10 L10,10 L10,0" fill-rule="nonzero" vector-effect="none"/></g><defs><clipPath id="clip73"><path d="M-7,-2 L105,-2 L105,73 L-7,73 L-7,-2 z"/></clipPath></defs><g clip-path="url(#clip73)" fill="#ffffff" fill-opacity="1" opacity="1" stroke="none" stroke-opacity="0" transform="matrix(1,0,0,1,7,2)"><path d="M0,0 L95,0 L95,71 L0,71 L0,0 z" fill-rule="evenodd" vector-effect="none"/></g><defs><clipPath id="clip77"><path d="M-3,-18 L92,-18 L92,53 L-3,53 L-3,-18 z"/></clipPath></defs><g clip-path="url(#clip77)" fill="none" opacity="1" stroke="#000000" stroke-linecap="butt" stroke-linejoin="miter" stroke-miterlimit="2" stroke-opacity="1" stroke-width="1" transform="matrix(1,0,0,1,10,20)"><text fill="#000000" fill-opacity="1" font-family="Arial" font-size="9" font-style="normal" font-weight="400" stroke="none" textLength="39.4688" x="0" xml:space="preserve" y="3">wheelSpd</text></g><defs><clipPath id="clip78"><path d="M-3,-53 L92,-53 L92,18 L-3,18 L-3,-53 z"/></clipPath></defs><g clip-path="url(#clip78)" fill="none" opacity="1" stroke="#000000" stroke-linecap="butt" stroke-linejoin="miter" stroke-miterlimit="2" stroke-opacity="1" stroke-width="1" transform="matrix(1,0,0,1,10,55)"><text fill="#000000" fill-opacity="1" font-family="Arial" font-size="9" font-style="normal" font-weight="400" stroke="none" textLength="19.5" x="0" xml:space="preserve" y="3">pose</text></g><defs><clipPath id="clip79"><path d="M-92,-18 L3,-18 L3,53 L-92,53 L-92,-18 z"/></clipPath></defs><g clip-path="url(#clip79)" fill="none" opacity="1" stroke="#000000" stroke-linecap="butt" stroke-linejoin="miter" stroke-miterlimit="2" stroke-opacity="1" stroke-width="1" transform="matrix(1,0,0,1,99,20)"><text fill="#000000" fill-opacity="1" font-family="Arial" font-size="9" font-style="normal" font-weight="400" stroke="none" textLength="6.48438" x="-6.48438" xml:space="preserve" y="3">R</text></g><defs><clipPath id="clip80"><path d="M-92,-53 L3,-53 L3,18 L-92,18 L-92,-53 z"/></clipPath></defs><g clip-path="url(#clip80)" fill="none" opacity="1" stroke="#000000" stroke-linecap="butt" stroke-linejoin="miter" stroke-miterlimit="2" stroke-opacity="1" stroke-width="1" transform="matrix(1,0,0,1,99,55)"><text fill="#000000" fill-opacity="1" font-family="Arial" font-size="9" font-style="normal" font-weight="400" stroke="none" textLength="7" x="-7" xml:space="preserve" y="3">G</text></g><defs><clipPath id="clip85"><path d="M-7.5,-2.5 L104.5,-2.5 L104.5,72.5 L-7.5,72.5 L-7.5,-2.5 z"/></clipPath></defs><g clip-path="url(#clip85)" fill="none" opacity="1" stroke="#000000" stroke-linecap="butt" stroke-linejoin="miter" stroke-miterlimit="2" stroke-opacity="1" stroke-width="1" transform="matrix(1,0,0,1,7.5,2.5)"><path d="M0,0 L95,0 L95,71 L0,71 L0,0 z" fill-rule="evenodd" vector-effect="none"/></g></g><!--generated on windows @ 2019-05-30 11:02:58 Central Daylight Time--></svg>
